<svg xmlns="http://www.w3.org/2000/svg" viewBox="0 0 512 512"><rect width="512" height="512" rx="112" fill="#0d1b13"/><path d="M256 46l32 58 65-20-8 68 64 23-45 50 43 52-65 20 6 68-64-23-34 59-34-59-64 23 6-68-65-20 43-52-45-50 64-23-8-68 65 20z" fill="#ffe000"/><rect x="220" y="125" width="72" height="260" rx="14" fill="#d7dbd2" stroke="#28342d" stroke-width="14"/><path d="M226 180h60M226 240h60M226 300h60" stroke="#7e8c83" stroke-width="9"/><path d="M145 408h222" stroke="#63d64c" stroke-width="18" stroke-linecap="round"/></svg>
